<?xml version="1.0" encoding="UTF-8" standalone="no"?>
<!-- Generator: Adobe Illustrator 19.0.0, SVG Export Plug-In . SVG Version: 6.00 Build 0)  -->

<svg
   xmlns:dc="http://purl.org/dc/elements/1.1/"
   xmlns:cc="http://creativecommons.org/ns#"
   xmlns:rdf="http://www.w3.org/1999/02/22-rdf-syntax-ns#"
   xmlns:svg="http://www.w3.org/2000/svg"
   xmlns="http://www.w3.org/2000/svg"
   xmlns:sodipodi="http://sodipodi.sourceforge.net/DTD/sodipodi-0.dtd"
   xmlns:inkscape="http://www.inkscape.org/namespaces/inkscape"
   version="1.1"
   id="Capa_1"
   x="0px"
   y="0px"
   viewBox="0 0 52.213 52.213"
   style="enable-background:new 0 0 52.213 52.213;"
   xml:space="preserve"
   inkscape:version="0.91 r13725"
   sodipodi:docname="search-1.svg"><metadata
     id="metadata45"><rdf:RDF><cc:Work
         rdf:about=""><dc:format>image/svg+xml</dc:format><dc:type
           rdf:resource="http://purl.org/dc/dcmitype/StillImage" /><dc:title></dc:title></cc:Work></rdf:RDF></metadata><defs
     id="defs43" /><sodipodi:namedview
     pagecolor="#ffffff"
     bordercolor="#666666"
     borderopacity="1"
     objecttolerance="10"
     gridtolerance="10"
     guidetolerance="10"
     inkscape:pageopacity="0"
     inkscape:pageshadow="2"
     inkscape:window-width="1920"
     inkscape:window-height="1053"
     id="namedview41"
     showgrid="false"
     inkscape:zoom="4.519947"
     inkscape:cx="13.385113"
     inkscape:cy="26.106501"
     inkscape:window-x="0"
     inkscape:window-y="0"
     inkscape:window-maximized="1"
     inkscape:current-layer="Capa_1" /><circle
     style="fill:#7383bf;fill-opacity:1"
     cx="21"
     cy="21"
     r="20"
     id="circle3" /><path
     style="fill:#2E253B;"
     d="M36.483,33.655c-0.846,1.034-1.794,1.982-2.828,2.828l15.73,15.73l2.828-2.828L36.483,33.655z"
     id="path5" /><path
     style="fill:#7383BF;"
     d="M3.493,31.85c0.84,1.424,1.849,2.776,3.072,3.999c0.723,0.723,1.499,1.356,2.297,1.945L36.794,9.862  c-0.589-0.798-1.222-1.574-1.945-2.297c-1.223-1.223-2.575-2.232-3.999-3.072L3.493,31.85z"
     id="path7" /><path
     style="fill:#2E253B;"
     d="M21,42C9.42,42,0,32.58,0,21S9.42,0,21,0s21,9.42,21,21S32.58,42,21,42z M21,2  C10.523,2,2,10.523,2,21s8.523,19,19,19s19-8.523,19-19S31.477,2,21,2z"
     id="path9" /><g
     id="g11" /><g
     id="g13" /><g
     id="g15" /><g
     id="g17" /><g
     id="g19" /><g
     id="g21" /><g
     id="g23" /><g
     id="g25" /><g
     id="g27" /><g
     id="g29" /><g
     id="g31" /><g
     id="g33" /><g
     id="g35" /><g
     id="g37" /><g
     id="g39" /></svg>